<?xml version="1.0" encoding="UTF-8" standalone="no"?>
<!-- Created with Inkscape (http://www.inkscape.org/) -->

<svg
   width="2200"
   height="500"
   viewBox="0 0 582.0833 132.29167"
   version="1.1"
   id="svg1"
   sodipodi:docname="logo_dashboard.svg"
   inkscape:version="1.4.2 (f4327f4, 2025-05-13)"
   xmlns:inkscape="http://www.inkscape.org/namespaces/inkscape"
   xmlns:sodipodi="http://sodipodi.sourceforge.net/DTD/sodipodi-0.dtd"
   xmlns:xlink="http://www.w3.org/1999/xlink"
   xmlns="http://www.w3.org/2000/svg"
   xmlns:svg="http://www.w3.org/2000/svg">
  <sodipodi:namedview
     id="namedview1"
     pagecolor="#505050"
     bordercolor="#eeeeee"
     borderopacity="1"
     inkscape:showpageshadow="0"
     inkscape:pageopacity="0"
     inkscape:pagecheckerboard="0"
     inkscape:deskcolor="#505050"
     inkscape:document-units="mm"
     showguides="true"
     showgrid="true"
     inkscape:lockguides="false"
     inkscape:zoom="0.5"
     inkscape:cx="1128"
     inkscape:cy="461"
     inkscape:window-width="1920"
     inkscape:window-height="1017"
     inkscape:window-x="-8"
     inkscape:window-y="-8"
     inkscape:window-maximized="1"
     inkscape:current-layer="path13">
    <inkscape:grid
       id="grid861"
       units="mm"
       originx="0"
       originy="0"
       spacingx="0.99999997"
       spacingy="1"
       empcolor="#0099e5"
       empopacity="0.30196078"
       color="#0099e5"
       opacity="0.14901961"
       empspacing="5"
       enabled="true"
       visible="true" />
  </sodipodi:namedview>
  <defs
     id="defs1">
    <inkscape:path-effect
       effect="fillet_chamfer"
       id="path-effect16"
       is_visible="true"
       lpeversion="1"
       nodesatellites_param="F,0,0,1,0,0,0,1 @ F,0,0,1,0,0,0,1 @ F,0,0,1,0,0,0,1 @ F,0,0,1,0,0,0,1 @ F,0,0,1,0,0,0,1 @ F,0,0,1,0,0,0,1 @ F,0,0,1,0,0,0,1 | F,0,0,1,0,0,0,1 @ F,0,0,1,0,0,0,1 @ F,0,0,1,0,0,0,1"
       radius="0"
       unit="px"
       method="auto"
       mode="F"
       chamfer_steps="1"
       flexible="false"
       use_knot_distance="true"
       apply_no_radius="true"
       apply_with_radius="true"
       only_selected="false"
       hide_knots="false" />
    <inkscape:path-effect
       effect="fillet_chamfer"
       id="path-effect15"
       is_visible="true"
       lpeversion="1"
       nodesatellites_param="F,0,0,1,0,0,0,1 @ F,0,0,1,0,0,0,1 @ F,0,0,1,0,0,0,1"
       radius="0"
       unit="px"
       method="auto"
       mode="F"
       chamfer_steps="1"
       flexible="false"
       use_knot_distance="true"
       apply_no_radius="true"
       apply_with_radius="true"
       only_selected="false"
       hide_knots="false" />
    <linearGradient
       id="linearGradient1005"
       inkscape:collect="always">
      <stop
         style="stop-color:#000000;stop-opacity:1;"
         offset="0.17630059"
         id="stop1005" />
      <stop
         style="stop-color:#000000;stop-opacity:0;"
         offset="1"
         id="stop1006" />
    </linearGradient>
    <linearGradient
       id="swatch986">
      <stop
         style="stop-color:#000000;stop-opacity:1;"
         offset="0"
         id="stop986" />
    </linearGradient>
    <rect
       x="936"
       y="204"
       width="1328.8188"
       height="141.95276"
       id="rect910" />
    <rect
       x="968"
       y="234"
       width="556"
       height="184"
       id="rect909" />
    <inkscape:path-effect
       effect="bspline"
       id="path-effect879"
       is_visible="true"
       lpeversion="1.3"
       weight="33.333333"
       steps="2"
       helper_size="0"
       apply_no_weight="true"
       apply_with_weight="true"
       only_selected="false"
       uniform="false" />
    <inkscape:path-effect
       effect="parallel"
       offset_pt="-39.999999,280"
       id="path-effect878"
       is_visible="true"
       lpeversion="1"
       length-left="150"
       length-right="150" />
    <linearGradient
       inkscape:collect="always"
       xlink:href="#linearGradient1005"
       id="linearGradient1006"
       x1="953.69531"
       y1="276.39346"
       x2="2142.6436"
       y2="276.39346"
       gradientUnits="userSpaceOnUse" />
  </defs>
  <g
     inkscape:label="Warstwa 1"
     inkscape:groupmode="layer"
     id="layer1">
    <path
       id="path884"
       style="opacity:1;fill:#ffffff;fill-opacity:1;stroke:#000000;stroke-width:0.529167;stroke-dasharray:none;stroke-opacity:1;paint-order:markers fill stroke"
       d="m 31.275607,84.330182 c 2.15e-4,3.4e-4 8.18e-4,7e-4 10e-4,0.001 1.17e-4,-4.1e-4 4e-4,-6.3e-4 5.17e-4,-0.001 -4.39e-4,7e-5 -0.0011,-5e-5 -0.0016,0 z m 10e-4,0.002 c -1.995055,7.022631 11.103885,11.896683 20.945491,9.914073 -12.362033,0.87247 -20.082926,-8.559612 -20.945491,-9.914073 z"
       sodipodi:nodetypes="cccccccc" />
    <path
       style="opacity:1;fill:#ffffff;fill-opacity:1;stroke:#000000;stroke-width:0.529167;stroke-dasharray:none;stroke-opacity:1;paint-order:markers fill stroke"
       id="path877"
       sodipodi:type="arc"
       sodipodi:cx="58.208324"
       sodipodi:cy="55.748989"
       sodipodi:rx="35"
       sodipodi:ry="35"
       sodipodi:start="0"
       sodipodi:end="3.564462"
       sodipodi:open="true"
       sodipodi:arc-type="arc"
       d="M 93.208324,55.748989 A 35,35 0 0 1 71.27638,88.217835 35,35 0 0 1 32.966843,79.99497 35,35 0 0 1 26.291293,41.385733" />
    <path
       style="opacity:1;fill:#ffffff;fill-opacity:1;stroke:#000000;stroke-width:0.529167;stroke-dasharray:none;stroke-opacity:1;paint-order:markers fill stroke"
       d="m 7.0257238,37.320271 c 39.6387552,-3.23937 58.1063842,16.37751 95.0430962,20.73387 l -8.463623,-21.38814 -0.70395,13.87556 C 42.622111,39.125131 46.693607,22.687656 7.0257238,37.320271 Z"
       id="path880"
       sodipodi:nodetypes="ccccc" />
    <path
       style="opacity:1;fill:#ffffff;fill-opacity:1;stroke:#000000;stroke-width:0.529167;stroke-dasharray:none;stroke-opacity:1;paint-order:markers fill stroke"
       d="m 105.33766,58.073631 -3.61399,-9.20062 6.46779,4.90607 z"
       id="path883"
       sodipodi:nodetypes="cccc" />
    <use
       x="0"
       y="0"
       xlink:href="#path884"
       id="use887"
       transform="matrix(-1,0,0,1,232.83186,-1.3471729e-7)"
       style="opacity:1;fill:#ffffff;fill-opacity:1;stroke:#000000;stroke-width:0.529167;stroke-dasharray:none;stroke-opacity:1" />
    <use
       x="0"
       y="0"
       xlink:href="#path877"
       id="use888"
       transform="matrix(-1,0,0,1,232.83186,-1.3471729e-7)"
       style="opacity:1;fill:#ffffff;fill-opacity:1;stroke:#000000;stroke-width:0.529167;stroke-dasharray:none;stroke-opacity:1" />
    <use
       x="0"
       y="0"
       xlink:href="#path880"
       id="use889"
       transform="matrix(-1,0,0,1,232.83186,-1.3471729e-7)"
       style="opacity:1;fill:#ffffff;fill-opacity:1;stroke:#000000;stroke-width:0.529167;stroke-dasharray:none;stroke-opacity:1" />
    <use
       x="0"
       y="0"
       xlink:href="#path883"
       id="use892"
       transform="matrix(-1,0,0,1,232.83186,-1.3471729e-7)"
       style="opacity:1;fill:#ffffff;fill-opacity:1;stroke:#000000;stroke-width:0.529167;stroke-dasharray:none;stroke-opacity:1" />
    <path
       style="opacity:1;fill:#000000;fill-opacity:1;stroke:none;stroke-width:0.529167;stroke-dasharray:none;stroke-opacity:1;paint-order:markers fill stroke"
       id="path909"
       sodipodi:type="arc"
       sodipodi:cx="75.981026"
       sodipodi:cy="66.169296"
       sodipodi:rx="7.1437497"
       sodipodi:ry="7.1437497"
       sodipodi:start="0"
       sodipodi:end="4.6606588"
       sodipodi:open="true"
       sodipodi:arc-type="arc"
       d="m 83.124775,66.169296 a 7.1437497,7.1437497 0 0 1 -7.020573,7.142688 7.1437497,7.1437497 0 0 1 -7.262678,-6.896372 7.1437497,7.1437497 0 0 1 6.770119,-7.380509" />
    <use
       x="0"
       y="0"
       xlink:href="#path909"
       id="use909"
       transform="matrix(-1,0,0,1,233.49139,-1.3471729e-7)"
       style="opacity:1;fill:#000000;fill-opacity:1;stroke:none;stroke-width:0.529167;stroke-dasharray:none;stroke-opacity:1" />
    <text
       xml:space="preserve"
       transform="scale(0.26458333)"
       id="text909"
       style="text-align:start;writing-mode:lr-tb;direction:ltr;white-space:pre;shape-inside:url(#rect909);opacity:1;fill:#ffffff;fill-opacity:1;stroke:#000000;stroke-width:0;stroke-dasharray:none;stroke-opacity:1;paint-order:markers fill stroke" />
    <g
       id="text910"
       style="opacity:1"
       transform="matrix(0.26458333,0,0,0.26458333,-17.573904,-11.823853)">
      <path
         style="font-size:130px;line-height:1;-inkscape-font-specification:sans-serif;baseline-shift:baseline;white-space:pre;shape-padding:6;display:inline;overflow:visible;vector-effect:none;fill:#ffffff;paint-order:markers fill stroke;enable-background:accumulate;stop-color:#000000;stop-opacity:1"
         d="m 1034.5488,265.18986 c 0,8.59049 -1.8831,16.37695 -5.6494,23.35937 -3.7239,6.98242 -8.6963,12.39909 -14.917,16.25 -4.3164,2.66601 -9.1406,4.59147 -14.47263,5.77637 -5.28971,1.18489 -12.27214,1.77734 -20.94727,1.77734 h -23.86719 v -94.5166 h 23.61328 c 9.22526,0 16.54623,0.67708 21.96291,2.03125 5.459,1.31185 10.0716,3.13151 13.8379,5.45898 6.4323,4.02019 11.4469,9.37338 15.0439,16.05957 3.597,6.6862 5.3955,14.62077 5.3955,23.80372 z m -13.1396,-0.19043 c 0,-7.4056 -1.2907,-13.64746 -3.8721,-18.72559 -2.5814,-5.07813 -6.4323,-9.07715 -11.5527,-11.99707 -3.724,-2.11589 -7.68071,-3.57585 -11.87014,-4.37988 -4.18945,-0.84635 -9.2041,-1.26953 -15.04395,-1.26953 h -11.80664 v 72.93457 h 11.80664 c 6.05143,0 11.31999,-0.44434 15.80567,-1.33301 4.52801,-0.88867 8.67512,-2.53906 12.44142,-4.95117 4.6973,-3.00456 8.2096,-6.96127 10.5371,-11.87012 2.3698,-4.90885 3.5547,-11.04492 3.5547,-18.4082 z m 87.5976,47.35351 h -11.8701 v -7.55371 c -1.0579,0.7194 -2.4967,1.73503 -4.3164,3.04688 -1.7773,1.26953 -3.5124,2.28515 -5.2051,3.04687 -1.9889,0.97331 -4.2741,1.77734 -6.8554,2.41211 -2.5814,0.67708 -5.6071,1.01562 -9.0772,1.01562 -6.3899,0 -11.8066,-2.11588 -16.25,-6.34765 -4.4433,-4.23177 -6.665,-9.62728 -6.665,-16.18653 0,-5.37435 1.1426,-9.71191 3.4277,-13.01269 2.3275,-3.3431 5.6283,-5.9668 9.9024,-7.87109 4.3164,-1.9043 9.5003,-3.19499 15.5517,-3.87207 6.0515,-0.67709 12.5472,-1.1849 19.4873,-1.52344 v -1.84082 c 0,-2.70833 -0.4866,-4.95117 -1.4599,-6.72852 -0.931,-1.77734 -2.2852,-3.17382 -4.0625,-4.18945 -1.6927,-0.97331 -3.724,-1.62923 -6.0938,-1.96777 -2.3698,-0.33855 -4.8454,-0.50782 -7.4267,-0.50782 -3.1315,0 -6.6228,0.42318 -10.4737,1.26953 -3.8509,0.80404 -7.8287,1.98894 -11.9336,3.55469 h -0.6347 v -12.12402 c 2.3275,-0.63477 5.6917,-1.33301 10.0927,-2.09473 4.4011,-0.76172 8.7386,-1.14258 13.0127,-1.14258 4.9935,0 9.3311,0.42318 13.0127,1.26953 3.724,0.80404 6.9402,2.20053 9.6485,4.18946 2.666,1.94661 4.6972,4.46452 6.0937,7.55371 1.3965,3.08919 2.0947,6.91895 2.0947,11.48926 z m -11.8701,-17.45605 v -19.74121 c -3.6393,0.21159 -7.9346,0.52897 -12.8857,0.95214 -4.9089,0.42318 -8.8021,1.03679 -11.6797,1.84082 -3.4277,0.97331 -6.1995,2.49675 -8.3154,4.57032 -2.1159,2.03125 -3.1739,4.84537 -3.1739,8.44238 0,4.0625 1.2272,7.13053 3.6817,9.2041 2.4544,2.03125 6.1995,3.04688 11.2353,3.04688 4.1895,0 8.0192,-0.80404 11.4893,-2.41211 3.4701,-1.65039 6.6862,-3.61817 9.6484,-5.90332 z m 85.5029,-2.9834 c 0,6.47461 -2.6872,11.78548 -8.0615,15.93262 -5.332,4.14713 -12.6318,6.2207 -21.8994,6.2207 -5.2474,0 -10.0716,-0.61361 -14.4726,-1.84082 -4.3587,-1.26953 -8.0192,-2.64486 -10.9815,-4.12598 v -13.39355 h 0.6348 c 3.7663,2.83529 7.9557,5.09928 12.5683,6.79199 4.6127,1.65039 9.0349,2.47558 13.2666,2.47558 5.2474,0 9.3522,-0.84635 12.3145,-2.53906 2.9622,-1.69271 4.4433,-4.35872 4.4433,-7.99804 0,-2.79297 -0.804,-4.90886 -2.4121,-6.34766 -1.6081,-1.4388 -4.6972,-2.66601 -9.2675,-3.68164 -1.6927,-0.38086 -3.9144,-0.8252 -6.6651,-1.33301 -2.7083,-0.50781 -5.1839,-1.05794 -7.4267,-1.65039 -6.2207,-1.65039 -10.6429,-4.0625 -13.2666,-7.23633 -2.5814,-3.21615 -3.8721,-7.15169 -3.8721,-11.80664 0,-2.91992 0.5924,-5.67057 1.7773,-8.25195 1.2273,-2.58138 3.0681,-4.8877 5.5225,-6.91895 2.3698,-1.98893 5.3744,-3.55469 9.0137,-4.69726 3.6816,-1.1849 7.7864,-1.77735 12.3144,-1.77735 4.2318,0 8.5059,0.52897 12.8223,1.58692 4.3587,1.01563 7.9769,2.264 10.8545,3.74511 v 12.75879 h -0.6348 c -3.0469,-2.24283 -6.7497,-4.12597 -11.1084,-5.64941 -4.3587,-1.56575 -8.6328,-2.34863 -12.8222,-2.34863 -4.3587,0 -8.0404,0.84635 -11.045,2.53906 -3.0045,1.65039 -4.5068,4.12598 -4.5068,7.42676 0,2.91992 0.9098,5.12044 2.7295,6.60156 1.7773,1.48112 4.6549,2.68717 8.6328,3.61816 2.2005,0.50781 4.655,1.01563 7.3633,1.52344 2.7507,0.50781 5.0358,0.97331 6.8554,1.39649 5.5437,1.26953 9.8178,3.44889 12.8223,6.53808 3.0045,3.13151 4.5068,7.27865 4.5068,12.44141 z m 76.3624,20.43945 h -11.9336 v -40.37109 c 0,-3.25847 -0.1904,-6.30534 -0.5713,-9.14063 -0.3809,-2.8776 -1.0791,-5.12044 -2.0948,-6.72851 -1.0579,-1.77735 -2.5814,-3.0892 -4.5703,-3.93555 -1.9889,-0.88867 -4.5703,-1.33301 -7.7441,-1.33301 -3.2585,0 -6.665,0.80404 -10.2197,2.41211 -3.5547,1.60807 -6.9613,3.66048 -10.2198,6.15723 v 52.93945 h -11.9336 v -98.76953 h 11.9336 v 35.7373 c 3.724,-3.08919 7.5749,-5.50129 11.5528,-7.23632 3.9779,-1.73503 8.0615,-2.60254 12.2509,-2.60254 7.6595,0 13.4994,2.30631 17.5196,6.91894 4.0202,4.61263 6.0303,11.25651 6.0303,19.93164 z m 85.3759,-35.99121 c 0,5.92448 -0.8463,11.25651 -2.539,15.99609 -1.6504,4.73959 -3.8932,8.71745 -6.7285,11.9336 -3.0046,3.3431 -6.3054,5.861 -9.9024,7.55371 -3.597,1.65039 -7.5537,2.47558 -11.8701,2.47558 -4.0202,0 -7.5326,-0.48665 -10.5371,-1.45996 -3.0046,-0.93099 -5.9668,-2.20052 -8.8867,-3.80859 l -0.7618,3.30078 h -11.1718 v -98.76953 h 11.9336 v 35.29297 c 3.3431,-2.75065 6.8977,-4.99349 10.664,-6.72852 3.7663,-1.77734 7.998,-2.66601 12.6953,-2.66601 8.3789,0 14.9805,3.21614 19.8047,9.64843 4.8665,6.43229 7.2998,15.50944 7.2998,27.23145 z m -12.3144,0.31738 c 0,-8.46354 -1.3965,-14.87467 -4.1895,-19.2334 -2.7929,-4.40104 -7.2998,-6.60156 -13.5205,-6.60156 -3.4701,0 -6.9824,0.76172 -10.5371,2.28516 -3.5547,1.48112 -6.8554,3.40658 -9.9023,5.77637 v 40.625 c 3.3854,1.52343 6.2842,2.58137 8.6963,3.17382 2.4544,0.59245 5.2262,0.88868 8.3154,0.88868 6.6015,0 11.7643,-2.1582 15.4883,-6.47461 3.7663,-4.35873 5.6494,-11.17188 5.6494,-20.43946 z m 91.3428,0.25391 c 0,11.55273 -2.9623,20.6722 -8.8868,27.3584 -5.9245,6.68619 -13.859,10.02929 -23.8037,10.02929 -10.0293,0 -18.0061,-3.3431 -23.9306,-10.02929 -5.8822,-6.6862 -8.8233,-15.80567 -8.8233,-27.3584 0,-11.55273 2.9411,-20.6722 8.8233,-27.3584 5.9245,-6.72851 13.9013,-10.09277 23.9306,-10.09277 9.9447,0 17.8792,3.36426 23.8037,10.09277 5.9245,6.6862 8.8868,15.80567 8.8868,27.3584 z m -12.3145,0 c 0,-9.18294 -1.7985,-15.99609 -5.3955,-20.43945 -3.597,-4.48568 -8.5905,-6.72852 -14.9805,-6.72852 -6.4746,0 -11.5104,2.24284 -15.1074,6.72852 -3.5547,4.44336 -5.332,11.25651 -5.332,20.43945 0,8.88672 1.7985,15.63639 5.3955,20.24902 3.597,4.57031 8.6116,6.85547 15.0439,6.85547 6.3477,0 11.32,-2.264 14.917,-6.79199 3.6393,-4.57031 5.459,-11.34115 5.459,-20.3125 z m 85.8838,35.41992 h -11.8701 v -7.55371 c -1.0579,0.7194 -2.4967,1.73503 -4.3164,3.04688 -1.7774,1.26953 -3.5124,2.28515 -5.2051,3.04687 -1.9889,0.97331 -4.2741,1.77734 -6.8555,2.41211 -2.5814,0.67708 -5.6071,1.01562 -9.0771,1.01562 -6.39,0 -11.8067,-2.11588 -16.25,-6.34765 -4.4434,-4.23177 -6.6651,-9.62728 -6.6651,-16.18653 0,-5.37435 1.1426,-9.71191 3.4278,-13.01269 2.3275,-3.3431 5.6282,-5.9668 9.9023,-7.87109 4.3164,-1.9043 9.5003,-3.19499 15.5518,-3.87207 6.0514,-0.67709 12.5472,-1.1849 19.4873,-1.52344 v -1.84082 c 0,-2.70833 -0.4867,-4.95117 -1.46,-6.72852 -0.931,-1.77734 -2.2852,-3.17382 -4.0625,-4.18945 -1.6927,-0.97331 -3.724,-1.62923 -6.0937,-1.96777 -2.3698,-0.33855 -4.8454,-0.50782 -7.4268,-0.50782 -3.1315,0 -6.6227,0.42318 -10.4736,1.26953 -3.8509,0.80404 -7.8288,1.98894 -11.9336,3.55469 h -0.6348 v -12.12402 c 2.3275,-0.63477 5.6917,-1.33301 10.0928,-2.09473 4.401,-0.76172 8.7386,-1.14258 13.0127,-1.14258 4.9935,0 9.331,0.42318 13.0127,1.26953 3.7239,0.80404 6.9401,2.20053 9.6484,4.18946 2.666,1.94661 4.6973,4.46452 6.0938,7.55371 1.3965,3.08919 2.0947,6.91895 2.0947,11.48926 z m -11.8701,-17.45605 v -19.74121 c -3.6393,0.21159 -7.9346,0.52897 -12.8858,0.95214 -4.9089,0.42318 -8.8021,1.03679 -11.6797,1.84082 -3.4277,0.97331 -6.1995,2.49675 -8.3154,4.57032 -2.1159,2.03125 -3.1738,4.84537 -3.1738,8.44238 0,4.0625 1.2272,7.13053 3.6816,9.2041 2.4545,2.03125 6.1996,3.04688 11.2354,3.04688 4.1895,0 8.0192,-0.80404 11.4892,-2.41211 3.4701,-1.65039 6.6862,-3.61817 9.6485,-5.90332 z m 79.0918,-40.43457 h -0.6348 c -1.7773,-0.42318 -3.5124,-0.71941 -5.2051,-0.88868 -1.6504,-0.21159 -3.6182,-0.31738 -5.9033,-0.31738 -3.6817,0 -7.2364,0.8252 -10.6641,2.47559 -3.4277,1.60807 -6.7285,3.7028 -9.9023,6.28418 v 50.33691 h -11.9336 v -70.90332 h 11.9336 v 10.47363 c 4.7396,-3.80859 8.9079,-6.49577 12.5049,-8.06152 3.6393,-1.60807 7.3421,-2.41211 11.1084,-2.41211 2.0735,0 3.5758,0.0635 4.5068,0.19043 0.931,0.0846 2.3275,0.27506 4.1895,0.57129 z m 68.7451,57.89062 h -11.9336 v -7.42676 c -3.4277,2.96224 -7.0036,5.26856 -10.7275,6.91895 -3.724,1.65039 -7.7654,2.47558 -12.1241,2.47558 -8.4635,0 -15.192,-3.25846 -20.1855,-9.77539 -4.9512,-6.51693 -7.4268,-15.55176 -7.4268,-27.10449 0,-6.00911 0.8464,-11.3623 2.5391,-16.05957 1.735,-4.69727 4.0625,-8.69629 6.9824,-11.99707 2.8776,-3.21615 6.2207,-5.67057 10.0293,-7.36328 3.8509,-1.69271 7.8288,-2.53906 11.9336,-2.53906 3.7239,0 7.0247,0.40202 9.9023,1.20605 2.8776,0.76172 5.9033,1.96778 9.0772,3.61817 v -30.72266 h 11.9336 z m -11.9336,-17.45605 v -40.68848 c -3.2161,-1.4388 -6.0937,-2.43327 -8.6328,-2.9834 -2.5391,-0.55013 -5.3109,-0.82519 -8.3155,-0.82519 -6.6861,0 -11.8912,2.32747 -15.6152,6.98242 -3.7239,4.65495 -5.5859,11.25651 -5.5859,19.80469 0,8.42122 1.4388,14.83235 4.3164,19.23339 2.8776,4.35873 7.4902,6.53809 13.8379,6.53809 3.3854,0 6.8131,-0.74056 10.2832,-2.22168 3.4701,-1.52344 6.7074,-3.47005 9.7119,-5.83984 z m 143.9014,-48.4961 c 0,4.18945 -0.7406,8.08268 -2.2217,11.67969 -1.4388,3.55469 -3.4701,6.64388 -6.0938,9.26758 -3.2585,3.25846 -7.1094,5.71289 -11.5527,7.36328 -4.4433,1.60807 -10.0504,2.41211 -16.8213,2.41211 h -12.5684 v 35.22949 h -12.5683 v -94.5166 h 25.6445 c 5.6706,0 10.4737,0.48665 14.4092,1.45996 3.9355,0.93099 7.4267,2.41211 10.4736,4.44336 3.597,2.41211 6.3688,5.41666 8.3155,9.01367 1.9889,3.59701 2.9834,8.14616 2.9834,13.64746 z m -13.0762,0.31739 c 0,-3.25847 -0.5713,-6.09375 -1.7139,-8.50586 -1.1425,-2.41211 -2.8776,-4.37989 -5.2051,-5.90332 -2.0312,-1.31185 -4.3587,-2.24284 -6.9824,-2.79297 -2.5814,-0.59245 -5.861,-0.88867 -9.8388,-0.88867 h -12.4415 v 37.76855 h 10.6006 c 5.0781,0 9.2041,-0.44434 12.378,-1.33301 3.1738,-0.93099 5.7552,-2.39095 7.7441,-4.37988 1.9889,-2.03125 3.3854,-4.1683 4.1895,-6.41113 0.8463,-2.24284 1.2695,-4.76074 1.2695,-7.55371 z m 72.9346,7.74414 h -0.6348 c -1.7773,-0.42318 -3.5124,-0.71941 -5.2051,-0.88868 -1.6504,-0.21159 -3.6182,-0.31738 -5.9033,-0.31738 -3.6817,0 -7.2364,0.8252 -10.6641,2.47559 -3.4277,1.60807 -6.7285,3.7028 -9.9023,6.28418 v 50.33691 h -11.9336 v -70.90332 h 11.9336 v 10.47363 c 4.7396,-3.80859 8.9079,-6.49577 12.5049,-8.06152 3.6393,-1.60807 7.3421,-2.41211 11.1084,-2.41211 2.0735,0 3.5758,0.0635 4.5068,0.19043 0.931,0.0846 2.3275,0.27506 4.1895,0.57129 z m 71.665,22.4707 c 0,11.55273 -2.9622,20.6722 -8.8867,27.3584 -5.9245,6.68619 -13.859,10.02929 -23.8037,10.02929 -10.0293,0 -18.0062,-3.3431 -23.9307,-10.02929 -5.8821,-6.6862 -8.8232,-15.80567 -8.8232,-27.3584 0,-11.55273 2.9411,-20.6722 8.8232,-27.3584 5.9245,-6.72851 13.9014,-10.09277 23.9307,-10.09277 9.9447,0 17.8792,3.36426 23.8037,10.09277 5.9245,6.6862 8.8867,15.80567 8.8867,27.3584 z m -12.3145,0 c 0,-9.18294 -1.7985,-15.99609 -5.3955,-20.43945 -3.597,-4.48568 -8.5905,-6.72852 -14.9804,-6.72852 -6.4746,0 -11.5104,2.24284 -15.1075,6.72852 -3.5547,4.44336 -5.332,11.25651 -5.332,20.43945 0,8.88672 1.7985,15.63639 5.3955,20.24902 3.597,4.57031 8.6117,6.85547 15.044,6.85547 6.3476,0 11.3199,-2.264 14.917,-6.79199 3.6393,-4.57031 5.4589,-11.34115 5.4589,-20.3125 z m 88.2959,27.3584 c 0,12.01823 -2.7295,20.84147 -8.1884,26.46972 -5.459,5.62826 -13.8591,8.44239 -25.2002,8.44239 -3.7663,0 -7.47,0.18897 -11.0671,-0.36116 -3.5547,-0.50781 -7.202,0.64554 -10.6721,-0.32777 v -10.62507 c 2.7022,-0.10287 18.1534,0.0394 22.7548,0.58646 4.0341,0.47961 7.4267,-0.48665 10.0928,-1.45996 2.666,-0.97331 4.7396,-2.32747 6.2207,-4.0625 1.4811,-1.65039 2.539,-3.63933 3.1738,-5.9668 0.6347,-2.32747 0.9521,-4.93001 0.9521,-7.80762 v -6.47461 c -3.597,2.87761 -7.0459,5.03581 -10.3466,6.47461 -3.2585,1.39649 -7.4268,2.09473 -12.5049,2.09473 -8.4635,0 -15.1921,-3.04688 -20.1856,-9.14063 -4.9511,-6.13607 -7.4267,-14.76888 -7.4267,-25.89843 0,-6.09375 0.8463,-11.34115 2.539,-15.74219 1.7351,-4.44336 4.0837,-8.27311 7.0459,-11.48926 2.7507,-3.00455 6.0938,-5.33203 10.0293,-6.98242 3.9356,-1.69271 7.85,-2.53906 11.7432,-2.53906 4.1048,0 7.5325,0.42318 10.2832,1.26953 2.793,0.80403 5.7341,2.05241 8.8232,3.74512 l 0.7618,-3.04688 h 11.1718 z m -11.9336,-11.42578 v -38.65723 c -3.1738,-1.4388 -6.136,-2.45443 -8.8867,-3.04688 -2.7083,-0.63476 -5.4167,-0.95214 -8.125,-0.95214 -6.5592,0 -11.722,2.20052 -15.4883,6.60156 -3.7663,4.40104 -5.6494,10.79101 -5.6494,19.16992 0,7.95573 1.3965,13.986 4.1895,18.09082 2.7929,4.10482 7.4267,6.15723 13.9014,6.15723 3.47,0 6.94,-0.65593 10.4101,-1.96778 3.5124,-1.35417 6.7285,-3.15267 9.6484,-5.3955 z m 79.6631,-38.40332 h -0.6347 c -1.7773,-0.42318 -3.5124,-0.71941 -5.2051,-0.88868 -1.6504,-0.21159 -3.6182,-0.31738 -5.9033,-0.31738 -3.6817,0 -7.2364,0.8252 -10.6641,2.47559 -3.4277,1.60807 -6.7285,3.7028 -9.9023,6.28418 v 50.33691 h -11.9336 v -70.90332 h 11.9336 v 10.47363 c 4.7395,-3.80859 8.9078,-6.49577 12.5048,-8.06152 3.6393,-1.60807 7.3421,-2.41211 11.1084,-2.41211 2.0736,0 3.5759,0.0635 4.5069,0.19043 0.931,0.0846 2.3275,0.27506 4.1894,0.57129 z m 64.0479,57.89062 h -11.8701 v -7.55371 c -1.0579,0.7194 -2.4967,1.73503 -4.3164,3.04688 -1.7774,1.26953 -3.5124,2.28515 -5.2051,3.04687 -1.9889,0.97331 -4.2741,1.77734 -6.8555,2.41211 -2.5814,0.67708 -5.6071,1.01562 -9.0771,1.01562 -6.39,0 -11.8067,-2.11588 -16.25,-6.34765 -4.4434,-4.23177 -6.6651,-9.62728 -6.6651,-16.18653 0,-5.37435 1.1426,-9.71191 3.4278,-13.01269 2.3275,-3.3431 5.6282,-5.9668 9.9023,-7.87109 4.3164,-1.9043 9.5003,-3.19499 15.5518,-3.87207 6.0514,-0.67709 12.5472,-1.1849 19.4873,-1.52344 v -1.84082 c 0,-2.70833 -0.4867,-4.95117 -1.46,-6.72852 -0.931,-1.77734 -2.2852,-3.17382 -4.0625,-4.18945 -1.6927,-0.97331 -3.724,-1.62923 -6.0937,-1.96777 -2.3698,-0.33855 -4.8454,-0.50782 -7.4268,-0.50782 -3.1315,0 -6.6227,0.42318 -10.4736,1.26953 -3.8509,0.80404 -7.8288,1.98894 -11.9336,3.55469 h -0.6348 v -12.12402 c 2.3275,-0.63477 5.6917,-1.33301 10.0928,-2.09473 4.401,-0.76172 8.7386,-1.14258 13.0127,-1.14258 4.9935,0 9.331,0.42318 13.0127,1.26953 3.7239,0.80404 6.9401,2.20053 9.6484,4.18946 2.666,1.94661 4.6973,4.46452 6.0938,7.55371 1.3965,3.08919 2.0947,6.91895 2.0947,11.48926 z m -11.8701,-17.45605 v -19.74121 c -3.6393,0.21159 -7.9346,0.52897 -12.8858,0.95214 -4.9089,0.42318 -8.8021,1.03679 -11.6797,1.84082 -3.4277,0.97331 -6.1995,2.49675 -8.3154,4.57032 -2.1159,2.03125 -3.1738,4.84537 -3.1738,8.44238 0,4.0625 1.2272,7.13053 3.6816,9.2041 2.4545,2.03125 6.1996,3.04688 11.2354,3.04688 4.1895,0 8.0192,-0.80404 11.4892,-2.41211 3.4701,-1.65039 6.6862,-3.61817 9.6485,-5.90332 z m 138.3154,17.45605 h -11.9336 v -40.37109 c 0,-3.04688 -0.1481,-5.98796 -0.4443,-8.82324 -0.2539,-2.83529 -0.8252,-5.09929 -1.7139,-6.792 -0.9733,-1.81966 -2.3698,-3.19498 -4.1895,-4.12597 -1.8196,-0.93099 -4.4433,-1.39649 -7.871,-1.39649 -3.3431,0 -6.6862,0.84635 -10.0293,2.53906 -3.3431,1.65039 -6.6862,3.76628 -10.0293,6.34766 0.1269,0.97331 0.2327,2.11589 0.3173,3.42774 0.085,1.26953 0.127,2.53906 0.127,3.80859 v 45.38574 h -11.9336 v -40.37109 c 0,-3.13151 -0.1481,-6.09375 -0.4443,-8.88672 -0.2539,-2.83529 -0.8252,-5.09928 -1.7139,-6.79199 -0.9733,-1.81967 -2.3698,-3.17383 -4.1895,-4.0625 -1.8196,-0.93099 -4.4433,-1.39649 -7.871,-1.39649 -3.2585,0 -6.5381,0.80404 -9.8389,2.41211 -3.2585,1.60807 -6.5169,3.66048 -9.7754,6.15723 v 52.93945 h -11.9336 v -70.90332 h 11.9336 v 7.87109 c 3.7239,-3.08919 7.4267,-5.50129 11.1084,-7.23632 3.7239,-1.73503 7.6806,-2.60254 11.8701,-2.60254 4.8242,0 8.9079,1.01562 12.251,3.04687 3.3854,2.03125 5.9033,4.84538 7.5537,8.44239 4.8242,-4.0625 9.2252,-6.98242 13.2031,-8.75977 3.9779,-1.81966 8.2308,-2.72949 12.7588,-2.72949 7.7865,0 13.5205,2.36979 17.2022,7.10937 3.7239,4.69727 5.5859,11.27767 5.5859,19.74121 z"
         id="path11"
         sodipodi:nodetypes="scccsccsccssssccsccscccsccccccsssccscsccssccccssccssccccccscsccscscccccssssccccscccscccccscscccccsccscccssccccccsssscscccsccccccccscsscsccccscsssscscscsscscscscsccccccsssccscsccssccccssccssccccccscscccccsccccccccsccccccsscscccscccccccsssscsccscscsccccscccsssccsccscccscccsccccccccscccssscscscsscscscscsssscccsscssccscscccsccccscccssssscccccsccccccccscccccccccsssccscsccssccccssccssccccccscsccccsccsscccsccscccsccccccccscccscsc" />
      <path
         style="font-size:130px;line-height:1;-inkscape-font-specification:sans-serif;baseline-shift:baseline;white-space:pre;shape-padding:6;display:inline;overflow:visible;vector-effect:none;paint-order:markers fill stroke;enable-background:accumulate;stop-color:#000000;stop-opacity:1"
         d="m 1198.7148,212.58398 v 100.76954 h 13.9336 v -53.41407 c 3.0841,-2.32107 6.2899,-4.25919 9.6329,-5.77148 3.4501,-1.56078 6.7126,-2.32422 9.8066,-2.32422 3.0805,0 5.5279,0.43824 7.3359,1.24609 l 0.01,0.004 0.01,0.004 c 1.8157,0.77261 3.1488,1.92672 4.1016,3.52734 l 0.01,0.01 0.01,0.0117 c 0.902,1.4281 1.5804,3.53918 1.9493,6.32618 v 0.002 c 0.3741,2.78519 0.5625,5.78831 0.5625,9.00781 v 41.3711 h 13.9336 v -47.02149 c 0,-8.8296 -2.0532,-15.74117 -6.2774,-20.58789 -4.2269,-4.84977 -10.4132,-7.26172 -18.2734,-7.26172 -4.3275,0 -8.5546,0.89909 -12.6504,2.68555 -3.4961,1.52488 -6.8658,3.66065 -10.1524,6.19336 v -34.77735 z m 82.2657,0 v 100.76954 h 12.9668 l 0.6582,-2.85157 c 2.5948,1.34545 5.2188,2.48311 7.8867,3.31055 6e-4,1.9e-4 0,-1.9e-4 0,0 3.1286,1.01323 6.7436,1.50781 10.8438,1.50781 4.4438,0 8.5523,-0.85279 12.2871,-2.5664 v -0.002 l 0.01,-0.002 c 3.7294,-1.75503 7.1376,-4.36277 10.2187,-7.79102 v -0.002 -0.004 c 2.9316,-3.32534 5.2344,-7.42121 6.92,-12.25976 v -0.004 c 1.7362,-4.86298 2.5957,-10.30984 2.5957,-16.32812 0,-11.85792 -2.4573,-21.16499 -7.4981,-27.83008 v -0.004 c -4.9907,-6.65157 -11.9687,-10.04492 -20.6016,-10.04492 -4.8195,0 -9.2042,0.91496 -13.1132,2.75781 v 0.002 c 0,8.7e-4 0,0.001 -0.01,0.002 -3.247,1.49669 -6.3029,3.44416 -9.2363,5.67578 v -34.33594 z m 339.0293,0 v 30.16211 c -2.6908,-1.30197 -5.3065,-2.35811 -7.8086,-3.02148 0,-3.3e-4 0,3.3e-4 0,0 -2.9845,-0.83346 -6.3736,-1.24219 -10.168,-1.24219 -4.2423,0 -8.3652,0.87767 -12.3359,2.62305 v 0 0.002 c -3.938,1.75021 -7.4035,4.29482 -10.3692,7.60938 v 0.002 0.002 c -3.0108,3.40348 -5.4001,7.51757 -7.1719,12.31446 v 0.004 0.004 c -1.7389,4.82522 -2.5977,10.29542 -2.5977,16.39844 0,11.69559 2.5075,20.96541 7.6309,27.70898 v 0.002 0.002 c 5.1594,6.73343 12.2583,10.16601 20.9786,10.16601 4.4849,0 8.6731,-0.8516 12.5292,-2.56054 3.2337,-1.4331 6.3256,-3.44927 9.3243,-5.83204 v 6.42579 h 13.9336 V 212.58398 Z m -419.295,2 h 9.9336 v 36.86524 l 1.6387,-1.35938 c 3.6602,-3.03621 7.4311,-5.39409 11.3145,-7.08789 3.8599,-1.68359 7.7982,-2.51953 11.8496,-2.51953 7.4588,0 12.954,2.20069 16.7676,6.57617 3.8161,4.37855 5.7832,10.75279 5.7832,19.27344 v 45.02149 h -9.9336 v -39.3711 c 0,-3.29673 -0.1927,-6.38662 -0.5801,-9.27148 v -0.002 c -0.392,-2.96001 -1.1101,-5.32909 -2.2344,-7.11523 -1.1626,-1.94849 -2.8718,-3.41534 -5.0293,-4.33398 -2.1675,-0.96527 -4.8765,-1.41602 -8.1367,-1.41602 -3.423,0 -6.9736,0.84658 -10.6328,2.50195 -3.6273,1.64089 -7.0985,3.73296 -10.4141,6.27344 l -0.3926,0.30078 v 52.4336 h -9.9336 z m 82.2657,0 h 9.9336 v 36.41016 l 1.6347,-1.3457 c 3.2805,-2.69913 6.7613,-4.89375 10.4473,-6.5918 v -0.002 -0.002 c 3.6212,-1.70886 7.6984,-2.57031 12.2695,-2.57031 8.1231,0 14.3465,3.03808 19.0039,9.24805 v 0.002 0.002 c 4.6901,6.19921 7.0957,15.04334 7.0957,26.62696 0,5.82924 -0.8322,11.04486 -2.4805,15.66015 v 0.004 0.004 c -1.6146,4.63699 -3.7962,8.49439 -6.5332,11.59961 -6e-4,6.6e-4 0,0.001 0,0.002 -2.9253,3.25288 -6.1156,5.6777 -9.5762,7.30664 -8e-4,3.7e-4 0,0.002 0,0.002 -3.4567,1.58427 -7.2583,2.38086 -11.4434,2.38086 -3.9395,0 -7.3484,-0.47715 -10.2285,-1.41015 l -0.01,-0.002 -0.01,-0.002 c -2.9366,-0.90992 -5.8369,-2.15298 -8.7012,-3.73047 l -1.1582,-0.63867 -0.8809,3.81641 h -9.3769 z m 339.0293,0 h 9.9336 v 96.76954 h -9.9336 v -8.61329 l -1.6543,1.42969 c -3.3617,2.90517 -6.8533,5.15507 -10.4785,6.76172 -3.5919,1.59183 -7.4882,2.38867 -11.7207,2.38867 -8.2059,0 -14.5614,-3.08199 -19.3887,-9.38086 v -0.002 c -4.7779,-6.29014 -7.2207,-15.08748 -7.2207,-26.49609 0,-5.91522 0.8339,-11.15139 2.4805,-15.72071 1.6973,-4.59238 3.9611,-8.47443 6.7871,-11.66992 2.7895,-3.11773 6.0102,-5.48003 9.6895,-7.11523 3.73,-1.63902 7.5612,-2.45313 11.5273,-2.45313 3.652,0 6.8629,0.39402 9.6328,1.16797 l 0.01,0.002 0.01,0.002 c 2.7928,0.73927 5.7511,1.91668 8.8711,3.53906 l 1.4629,0.75976 z m -668.31449,2.25196 v 96.51758 h 24.86719 c 8.72066,0 15.76252,-0.59236 21.16602,-1.80274 l -0.002,0.002 c 5.43128,-1.20695 10.36458,-3.17439 14.78128,-5.90234 6.3736,-3.94556 11.4749,-9.50976 15.2715,-16.62695 v -0.002 c 3.8467,-7.13264 5.7675,-15.09633 5.7675,-23.83203 0,-9.31351 -1.8281,-17.42293 -5.5156,-24.27734 -3.6752,-6.83157 -8.822,-12.32575 -15.3945,-16.43359 v -0.002 0 c -3.8767,-2.39569 -8.5859,-4.24919 -14.1211,-5.58008 -5.54634,-1.38656 -12.93096,-2.06054 -22.20515,-2.06054 z m 748.38869,0 v 96.51758 h 14.5683 v -35.23047 h 11.5684 c 6.85,0 12.5659,-0.80732 17.1621,-2.47071 v -0.002 -0.002 c 4.5699,-1.69741 8.5527,-4.23428 11.9121,-7.59375 2.7174,-2.71732 4.8247,-5.92483 6.3106,-9.59375 v -0.006 c 1.5316,-3.72182 2.295,-7.74958 2.295,-12.05469 0,-5.61822 -1.0129,-10.33833 -3.1036,-14.12305 v -0.004 c -2.0248,-3.73978 -4.9193,-6.87239 -8.6367,-9.36524 v 0 c -3.1508,-2.10054 -6.7555,-3.62668 -10.789,-4.58203 -4.0442,-1.00018 -8.9207,-1.49023 -14.6485,-1.49023 z m -746.38869,2 h 22.61328 c 9.17633,0 16.43362,0.68018 21.72071,2.00195 v 0 0.002 c 5.3792,1.29266 9.8929,3.07984 13.5469,5.33789 6.2897,3.9322 11.1715,9.14245 14.6894,15.68164 3.5065,6.51799 5.2754,14.2777 5.2754,23.33008 0,8.44436 -1.8443,16.05316 -5.5293,22.88477 v 0.002 0.002 c -3.6511,6.84577 -8.4958,12.11555 -14.5625,15.8711 -4.2158,2.60361 -8.93,4.48768 -14.16213,5.65039 h -0.002 c -5.17593,1.15941 -12.09892,1.75391 -20.72852,1.75391 h -22.86719 z m 748.38869,0 h 24.6445 c 5.6134,0 10.3431,0.4852 14.1699,1.43164 v 0 l 0.01,0.002 c 3.8332,0.90679 7.2082,2.3426 10.1484,4.30274 3.4742,2.33023 6.1222,5.20448 7.9903,8.65625 v 0.004 0.004 c 1.8844,3.40808 2.8594,7.78327 2.8594,13.16406 0,4.07161 -0.7174,7.82821 -2.1465,11.29883 v 0.004 0.002 c -1.3916,3.43804 -3.3463,6.40689 -5.875,8.93554 -3.1574,3.15745 -6.8766,5.52944 -11.1933,7.13282 -4.2895,1.55113 -9.7846,2.34961 -16.4727,2.34961 h -13.5684 v 35.23047 h -10.5683 z m -737.82033,8.79101 v 74.93555 h 12.80664 c 6.10039,0 11.43023,-0.44818 16,-1.35352 l -0.002,0.002 c 4.64349,-0.91134 8.91509,-2.61043 12.78709,-5.08985 v -0.002 c 4.8395,-3.09606 8.4936,-7.20791 10.8985,-12.27734 v -0.006 c 2.4532,-5.08419 3.6524,-11.36803 3.6524,-18.83594 0,-7.52179 -1.3121,-13.92651 -3.9825,-19.17969 -2.6673,-5.2472 -6.6729,-9.40443 -11.9472,-12.41211 v 0 c -3.8138,-2.16692 -7.87456,-3.66748 -12.16595,-4.49218 -4.27785,-0.86422 -9.35403,-1.28907 -15.24219,-1.28907 z m 748.38863,0 v 39.76953 h 11.5997 c 5.1364,0 9.3412,-0.44508 12.6484,-1.37109 l 0.01,-0.002 h 0.01 c 3.3042,-0.96925 6.0481,-2.51099 8.1699,-4.63282 v -0.004 -0.004 c 2.0683,-2.11222 3.5516,-4.36949 4.4122,-6.76562 0.8928,-2.36923 1.332,-5.00746 1.332,-7.89844 0,-3.37535 -0.5934,-6.36405 -1.8106,-8.93359 -1.2201,-2.57593 -3.0934,-4.69769 -5.5605,-6.3125 v -0.002 -0.002 c -2.1404,-1.38238 -4.5845,-2.3572 -7.3105,-2.92969 -2.6891,-0.61613 -6.0297,-0.91211 -10.0527,-0.91211 z m -746.38863,2 h 10.80664 c 5.79154,0 10.74465,0.42151 14.84571,1.25 l 0.006,0.002 h 0.004 c 4.08383,0.78376 7.93318,2.20438 11.56438,4.26757 4.9653,2.83204 8.6612,6.67182 11.1563,11.58008 2.4924,4.90308 3.7637,10.98403 3.7637,18.27344 0,7.256 -1.1724,13.24009 -3.4571,17.97266 v 0.004 0.002 c -2.2498,4.7449 -5.6197,8.54527 -10.1719,11.45703 v 0 c -3.6599,2.34402 -7.68202,3.94666 -12.09367,4.8125 h -0.002 c -4.40159,0.87201 -9.60885,1.31445 -15.61133,1.31445 h -10.80664 z m 748.38863,0 h 11.4415 c 3.9281,0 7.1429,0.29589 9.6152,0.86328 l 0.01,0.002 0.01,0.002 c 2.516,0.52754 4.7219,1.4141 6.6406,2.65234 2.1879,1.43206 3.7847,3.24584 4.8496,5.49414 1.068,2.25467 1.6172,4.93655 1.6172,8.07813 0,2.69196 -0.4072,5.08466 -1.2051,7.19922 v 0.008 0.008 c -0.748,2.08655 -2.0555,4.10091 -3.9628,6.04883 -1.8526,1.85006 -4.2651,3.22544 -7.2989,4.11719 0,3e-4 0,-3e-4 0,0 -3.0401,0.85074 -7.0874,1.29687 -12.1054,1.29687 h -9.5997 z m -325.9375,8.85547 c -10.2529,0 -18.5702,3.49308 -24.6796,10.43164 -6.0709,6.90065 -9.0743,16.29708 -9.0743,28.01953 0,11.72246 3.0034,21.11693 9.0743,28.01758 v 0.002 0.002 c 6.1102,6.89583 14.4263,10.36523 24.6777,10.36523 10.1688,0 18.4441,-3.47117 24.5528,-10.36523 6.1141,-6.90017 9.1387,-16.29781 9.1387,-28.02149 -10e-5,-11.72252 -3.0239,-21.11955 -9.1368,-28.01953 v -0.002 c -6.1077,-6.93538 -14.3836,-10.42969 -24.5528,-10.42969 z m 473.0293,0 c -10.2529,0 -18.5722,3.49308 -24.6816,10.43164 -6.0708,6.90065 -9.0723,16.29708 -9.0723,28.01953 0,11.72246 3.0015,21.11693 9.0723,28.01758 v 0.002 0.002 c 6.1102,6.89583 14.4281,10.36523 24.6796,10.36523 10.1688,0 18.4422,-3.47117 24.5508,-10.36523 6.1141,-6.90017 9.1387,-16.29781 9.1387,-28.02149 0,-11.72252 -3.0239,-21.11955 -9.1367,-28.01953 v -0.002 c -6.1077,-6.93538 -14.3816,-10.42969 -24.5508,-10.42969 z m 77.6309,0 c -4.0356,0 -8.0878,0.87937 -12.1309,2.61719 -4.0585,1.70196 -7.5294,4.11602 -10.3789,7.22851 -3.0509,3.31297 -5.4651,7.25488 -7.2402,11.80079 v 0.002 0.002 c -1.7481,4.54537 -2.6054,9.91522 -2.6054,16.10156 0,11.27785 2.5117,20.16133 7.6484,26.52735 v 0.002 0.004 c 5.1691,6.30798 12.2574,9.50586 20.961,9.50586 5.1698,0 9.4671,-0.70521 12.8984,-2.17578 v 0 -0.002 c 2.8885,-1.25911 5.88,-3.1515 8.9453,-5.44726 v 4.53125 c 0,2.80408 -0.3088,5.31642 -0.916,7.54297 -0.5987,2.19489 -1.5807,4.03316 -2.9532,5.5625 l -0.01,0.01 -0.01,0.01 c -1.3487,1.57991 -3.2625,2.84336 -5.8047,3.77148 -2.5124,0.9172 -5.7654,1.40039 -9.748,1.40039 -4.1418,0 -13.9333,-0.58394 -13.9333,-0.58394 0,0 -4.7445,-0.18267 -8.8103,-0.32355 v 13.50878 c 7.836,-0.64827 13.9041,0.068 21.728,0.12517 11.5066,0 20.2181,-2.8694 25.918,-8.74609 5.7066,-5.8836 8.4688,-14.99638 8.4688,-27.16601 v -63.8418 h -12.9512 l -0.6524,2.60742 c -2.7194,-1.4094 -5.3549,-2.5406 -7.873,-3.26562 v 0 c -2.8813,-0.88416 -6.3946,-1.3086 -10.5605,-1.3086 z m 220.707,0 c -4.3275,0 -8.4369,0.89966 -12.291,2.69531 v 0.002 0 c -3.2255,1.52005 -6.4518,3.64462 -9.6816,6.1582 v -6.88867 h -13.9336 v 72.9043 h 13.9336 v -53.41993 c 3.0813,-2.32675 6.154,-4.26975 9.2168,-5.78125 3.1829,-1.54998 6.3038,-2.30859 9.3965,-2.30859 3.3371,0 5.823,0.47209 7.416,1.28711 l 0.01,0.004 0.01,0.004 c 1.6401,0.801 2.8632,1.98527 3.7461,3.63477 4e-4,8.4e-4 0,0.001 0,0.002 0.7982,1.52353 1.3537,3.66262 1.5996,6.4082 v 0.01 0.008 c 0.2921,2.75399 0.4395,5.68127 0.4395,8.78125 v 41.3711 h 13.9336 V 266.9668 c 0,-1.29112 -0.043,-2.58209 -0.1289,-3.87305 v -0.002 c -0.071,-1.09396 -0.1666,-2.00481 -0.2676,-2.87696 3.1503,-2.3937 6.2926,-4.38977 9.4238,-5.93554 v -0.002 l 0.01,-0.002 c 3.2232,-1.63202 6.4038,-2.43164 9.5781,-2.43164 3.3372,0 5.8212,0.47209 7.4141,1.28711 1.6472,0.84273 2.8754,2.05205 3.7598,3.70312 0.7996,1.52388 1.3573,3.66526 1.6035,6.41407 v 0.008 0.006 c 0.2924,2.79846 0.4375,5.70623 0.4375,8.7207 v 41.3711 h 13.9356 v -47.02149 c 0,-8.60583 -1.8954,-15.42771 -5.7969,-20.35351 v -0.002 c -3.8912,-5.00781 -10.002,-7.49414 -17.9902,-7.49414 -4.6613,0 -9.064,0.94146 -13.1719,2.82031 -3.8381,1.71579 -8.0311,4.52509 -12.5449,8.23243 -1.7248,-3.24557 -4.0955,-5.94951 -7.2851,-7.86329 -3.5246,-2.13997 -7.8035,-3.18945 -12.7657,-3.18945 z m -1083.9257,0.25391 c -4.3335,0 -8.727,0.38525 -13.1817,1.15625 -4.4178,0.76463 -7.8017,1.46508 -10.1855,2.11523 l -0.7364,0.20117 v 13.88868 h 1.8184 l 0.1719,-0.0664 c 4.0608,-1.54896 7.9879,-2.71774 11.7812,-3.50977 l 0.01,-0.002 v 0 c 3.7954,-0.83415 7.2183,-1.24609 10.2598,-1.24609 2.5376,0 4.9656,0.16669 7.2851,0.49804 2.27,0.32428 4.175,0.94599 5.7363,1.84375 v 0 0.002 c 1.6245,0.92827 2.8279,2.17016 3.6738,3.78515 v 0.008 0.008 c 0.8705,1.58966 1.3379,3.6595 1.3379,6.24805 v 0.91601 c -6.5788,0.33864 -12.8181,0.80842 -18.5976,1.45508 -6.1283,0.68568 -11.4115,1.99488 -15.8457,3.95117 v 0.002 c -4.4112,1.96537 -7.8758,4.70729 -10.3164,8.21289 v 0 0.002 c -2.4297,3.50961 -3.6054,8.06595 -3.6054,13.58203 0,6.78505 2.3444,12.50043 6.9746,16.91016 4.6167,4.39686 10.3288,6.62304 16.9394,6.62304 3.5287,0 6.632,-0.34254 9.3164,-1.04492 l 0.01,-0.002 c 2.6301,-0.64716 4.9749,-1.46982 7.0352,-2.47657 1.7585,-0.79257 3.5453,-1.83819 5.3632,-3.13671 v -0.002 c 1.1548,-0.83255 1.8884,-1.33663 2.7324,-1.92773 v 6.62305 h 13.8692 v -49.11524 c 0,-4.67216 -0.709,-8.64448 -2.1817,-11.90234 -1.462,-3.23414 -3.6128,-5.90134 -6.414,-7.94727 v -0.002 c -2.8288,-2.07687 -6.1793,-3.52577 -10.0137,-4.35547 -6e-4,-1.3e-4 0,1.3e-4 0,0 -3.7774,-0.8682 -8.1871,-1.29492 -13.2363,-1.29492 z m 78.0136,0 c -4.6152,0 -8.8257,0.60269 -12.6211,1.82422 -3.7348,1.17346 -6.8607,2.7959 -9.3496,4.88476 -2.5483,2.11043 -4.4897,4.53328 -5.7832,7.25391 v 0.006 0.008 c -1.2445,2.7113 -1.8672,5.61279 -1.8672,8.66797 0,4.8398 1.3629,9.03378 4.0918,12.43359 v 0.006 0.004 c 2.8167,3.40736 7.4406,5.8842 13.7812,7.5664 v 0 c 2.2707,0.59982 4.7696,1.15444 7.498,1.66602 v 0.002 0 c 2.7428,0.50636 4.9545,0.94793 6.6269,1.32422 v 0 0.002 c 4.4969,0.99932 7.474,2.24636 8.8183,3.44921 1.3685,1.2244 2.0782,3.00246 2.0782,5.60352 0,3.36801 -1.2453,5.58937 -3.9395,7.12891 -2.7414,1.56651 -6.6785,2.4082 -11.8183,2.4082 -4.1018,0 -8.4084,-0.80026 -12.9297,-2.41797 -4.5224,-1.66048 -8.6191,-3.87532 -12.3028,-6.64844 l -0.2675,-0.20117 h -1.9688 v 15.01172 l 0.5527,0.27539 c 3.0356,1.51775 6.7479,2.90968 11.1485,4.19141 l 0.01,0.002 0.01,0.002 c 4.5001,1.25484 9.4149,1.87696 14.7402,1.87696 9.4168,0 16.9601,-2.11213 22.5137,-6.43164 v 0.004 c 5.5736,-4.30091 8.4492,-9.97331 8.4492,-16.72461 0,-5.35675 -1.5906,-9.80515 -4.7852,-13.13476 v -0.002 -0.002 c -3.1703,-3.2596 -7.6373,-5.51414 -13.3125,-6.81445 v -0.002 c -1.8409,-0.42804 -4.1365,-0.89509 -6.8945,-1.40429 v 0 c -2.6948,-0.50531 -5.1338,-1.01006 -7.3164,-1.51367 v -0.002 c -3.8929,-0.91155 -6.6428,-2.10045 -8.2168,-3.41211 v -0.004 l -0.01,-0.002 c -1.5701,-1.27802 -2.3593,-3.11398 -2.3593,-5.82617 0,-2.99736 1.2283,-5.03583 3.9863,-6.55078 l 0.01,-0.002 v -0.004 c 2.8244,-1.5912 6.3254,-2.41016 10.5547,-2.41016 4.0648,1e-5 8.2215,0.75973 12.4843,2.29102 v 0 0.002 c 4.283,1.49696 7.8952,3.33977 10.8457,5.51172 l 0.2637,0.19336 h 1.9649 v -14.36914 l -0.543,-0.2793 c -2.9776,-1.53257 -6.67,-2.79915 -11.0859,-3.82812 -4.3859,-1.07402 -8.7376,-1.61328 -13.0489,-1.61328 z m 309.9571,0 c -4.3336,0 -8.729,0.38525 -13.1836,1.15625 -4.4179,0.76463 -7.8017,1.46508 -10.1856,2.11523 l -0.7383,0.20117 v 13.88868 h 1.8203 l 0.1719,-0.0664 c 4.0608,-1.54895 7.9879,-2.71774 11.7813,-3.50977 l 0.01,-0.002 v 0 c 3.7954,-0.83415 7.2184,-1.24609 10.2598,-1.24609 2.5377,0 4.9657,0.16669 7.2852,0.49804 2.2699,0.32428 4.1749,0.94599 5.7363,1.84375 v 0 0.002 c 1.6245,0.92827 2.8279,2.17016 3.6739,3.78515 v 0.008 0.008 c 0.8705,1.58966 1.3379,3.65951 1.3379,6.24805 v 0.91601 c -6.5789,0.33864 -12.8182,0.80842 -18.5977,1.45508 -6.1283,0.68568 -11.4114,1.99488 -15.8457,3.95117 v 0 0.002 c -4.4112,1.96537 -7.8759,4.7073 -10.3164,8.21289 v 0 0.002 c -2.4298,3.50962 -3.6055,8.06595 -3.6055,13.58203 0,6.78505 2.3444,12.50043 6.9746,16.91016 4.6167,4.39687 10.3307,6.62304 16.9414,6.62304 3.5287,0 6.6301,-0.34254 9.3145,-1.04492 l 0.01,-0.002 c 2.6301,-0.64716 4.9749,-1.46982 7.0351,-2.47657 1.7585,-0.79257 3.5453,-1.83819 5.3633,-3.13671 v -0.002 c 1.1549,-0.83255 1.8884,-1.33663 2.7325,-1.92773 v 6.62305 h 13.8711 v -49.11524 c 0,-4.67216 -0.7109,-8.64448 -2.1836,-11.90234 -1.4621,-3.23413 -3.6129,-5.90135 -6.4141,-7.94727 v -0.002 c -2.8288,-2.07686 -6.1794,-3.52577 -10.0137,-4.35547 -6e-4,-1.3e-4 0,1.3e-4 0,0 -3.7775,-0.8682 -8.1852,-1.29492 -13.2343,-1.29492 z m 607.2168,0 c -4.3336,0 -8.729,0.38525 -13.1836,1.15625 -4.4179,0.76463 -7.8017,1.46508 -10.1856,2.11523 l -0.7383,0.20117 v 13.88868 h 1.8203 l 0.1719,-0.0664 c 4.0608,-1.54895 7.9879,-2.71774 11.7813,-3.50977 l 0.01,-0.002 v 0 c 3.7954,-0.83415 7.2184,-1.24609 10.2598,-1.24609 2.5377,0 4.9657,0.16669 7.2852,0.49804 2.2699,0.32428 4.1749,0.94599 5.7363,1.84375 v 0 0.002 c 1.6245,0.92827 2.8279,2.17016 3.6739,3.78515 v 0.008 0.008 c 0.8705,1.58966 1.3379,3.65951 1.3379,6.24805 v 0.91601 c -6.579,0.33864 -12.8182,0.80842 -18.5977,1.45508 -6.1283,0.68568 -11.4114,1.99488 -15.8457,3.95117 v 0 0.002 c -4.4112,1.96537 -7.8759,4.7073 -10.3165,8.21289 v 0 0.002 c -2.4298,3.50962 -3.6055,8.06595 -3.6055,13.58203 0,6.78505 2.3444,12.50043 6.9746,16.91016 4.6167,4.39687 10.3307,6.62304 16.9414,6.62304 3.5287,0 6.6301,-0.34254 9.3145,-1.04492 l 0.01,-0.002 c 2.6301,-0.64716 4.9749,-1.46982 7.0351,-2.47657 1.7585,-0.79257 3.5453,-1.83819 5.3633,-3.13671 v -0.002 c 1.1549,-0.83255 1.8884,-1.33663 2.7325,-1.92773 v 6.62305 h 13.8711 v -49.11524 c 0,-4.67216 -0.7109,-8.64448 -2.1836,-11.90234 -1.4621,-3.23413 -3.6129,-5.90135 -6.4141,-7.94727 v -0.002 c -2.8288,-2.07686 -6.1794,-3.52577 -10.0137,-4.35547 -6e-4,-1.3e-4 0,1.3e-4 0,0 -3.7775,-0.8682 -8.1852,-1.29492 -13.2343,-1.29492 z m -554.3907,1.71289 v 72.9043 h 13.9356 v -50.82813 c 3.0038,-2.40006 6.1069,-4.37843 9.3261,-5.88867 v -0.002 l 0.01,-0.002 c 3.3017,-1.58968 6.6963,-2.37695 10.2285,-2.37695 2.2543,0 4.1847,0.10636 5.7774,0.31055 h 0.014 l 0.014,0.002 c 1.6451,0.16451 3.3353,0.45362 5.0723,0.86719 l 0.1152,0.0273 h 1.752 v -14.10547 l -0.8438,-0.13281 c -1.8635,-0.29647 -3.259,-0.48882 -4.2344,-0.57813 -1.0292,-0.13885 -2.5338,-0.19726 -4.6171,-0.19726 -3.9086,0 -7.7577,0.83843 -11.5137,2.49805 -3.2727,1.42529 -7.0107,3.86458 -11.0996,7.00976 v -9.50781 z m 260.5723,0 v 72.9043 h 13.9336 v -50.82813 c 3.0039,-2.4001 6.1069,-4.37841 9.3262,-5.88867 l 0.01,-0.002 v -0.002 c 3.3017,-1.58968 6.6982,-2.37695 10.2305,-2.37695 2.2543,0 4.1827,0.10636 5.7754,0.31055 h 0.014 l 0.016,0.002 c 1.6451,0.16451 3.3353,0.45362 5.0722,0.86719 l 0.1133,0.0273 h 1.7539 v -14.10547 l -0.8437,-0.13281 c -1.8636,-0.29647 -3.2591,-0.48882 -4.2344,-0.57813 -1.0292,-0.13885 -2.5358,-0.19726 -4.6191,-0.19726 -3.9072,0 -7.7532,0.83767 -11.5078,2.49609 -3.2744,1.42529 -7.014,3.86639 -11.1055,7.01367 v -9.50976 z m 215.3769,0 v 72.9043 h 13.9336 v -50.82813 c 3.0039,-2.40006 6.107,-4.37843 9.3262,-5.88867 v -0.002 l 0.01,-0.002 c 3.3016,-1.58968 6.6982,-2.37695 10.2304,-2.37695 2.2543,0 4.1828,0.10636 5.7754,0.31055 h 0.014 l 0.014,0.002 c 1.6451,0.16451 3.3353,0.45362 5.0722,0.86719 l 0.1153,0.0273 h 1.7519 v -14.10547 l -0.8437,-0.13281 c -1.8635,-0.29647 -3.2591,-0.48882 -4.2344,-0.57813 -1.0292,-0.13885 -2.5357,-0.19726 -4.6191,-0.19726 -3.9086,0 -7.7558,0.83843 -11.5118,2.49805 -3.2727,1.42529 -7.0107,3.86458 -11.0996,7.00976 v -9.50781 z m -604.1875,0.0332 c 9.7192,0 17.3137,3.23368 23.0547,9.75391 v 0.002 c 5.7349,6.47223 8.6348,15.31352 8.6348,26.69531 0,11.3818 -2.8999,20.22308 -8.6348,26.69532 -5.7403,6.47832 -13.3361,9.6914 -23.0567,9.6914 -9.807,0 -17.4429,-3.21485 -23.1816,-9.6914 -5.6923,-6.47157 -8.5723,-15.3135 -8.5723,-26.69532 0,-11.38231 2.8814,-20.22562 8.5743,-26.69726 5.7395,-6.51846 13.374,-9.75391 23.1796,-9.75391 z m 473.0293,0 c 9.7192,0 17.3117,3.23368 23.0528,9.75391 v 0.002 c 5.7349,6.47223 8.6348,15.31352 8.6348,26.69531 0,11.3818 -2.8999,20.22309 -8.6348,26.69532 -5.7403,6.47832 -13.3341,9.6914 -23.0547,9.6914 -9.8071,0 -17.4448,-3.21485 -23.1836,-9.6914 -5.6922,-6.47157 -8.5703,-15.3135 -8.5703,-26.69532 0,-11.38231 2.8795,-20.22562 8.5723,-26.69726 5.7395,-6.51846 13.3759,-9.75391 23.1816,-9.75391 z m 77.6309,0 c 4.0361,0 7.3712,0.41938 9.9883,1.22461 l 0.01,0.002 0.01,0.004 c 2.7079,0.77954 5.5828,1.99641 8.6191,3.66016 l 1.1367,0.62304 0.8867,-3.54687 h 9.3907 v 61.8418 c 0,11.86682 -2.695,20.40053 -7.9063,25.77343 -5.218,5.37983 -13.3089,8.77324 -24.4805,8.4668 -5.7279,-0.15712 -18.4688,-0.46888 -21.7425,-0.0168 l 0,-10.62507 c 7.5526,0.96962 19.1461,1.04067 22.664,1.05592 4.1423,0.0179 7.7095,0.0392 10.5293,-0.99023 2.7858,-1.01702 5.0159,-2.45763 6.6289,-4.34375 1.5854,-1.76964 2.717,-3.90558 3.3867,-6.36133 0.6623,-2.4284 0.9864,-5.11918 0.9864,-8.07031 v -8.55664 l -1.6231,1.30078 c -3.544,2.83518 -6.9242,4.9435 -10.123,6.33789 -3.085,1.32096 -7.1198,2.01172 -12.1035,2.01172 -8.2236,0 -14.5942,-2.89392 -19.4121,-8.77344 -4.7628,-5.90583 -7.2012,-14.28768 -7.2012,-25.26563 0,-5.9994 0.8345,-11.12293 2.4707,-15.3789 v -0.004 c 1.6945,-4.33809 3.976,-8.05202 6.8477,-11.16992 v -0.002 -0.002 c 2.6519,-2.89661 5.8652,-5.13554 9.6778,-6.73437 l 0.01,-0.002 v -0.002 c 3.8257,-1.64542 7.5994,-2.45703 11.3477,-2.45703 z m 220.707,0 c 4.6839,0 8.5717,0.97998 11.7325,2.90039 v 0.002 0.002 c 3.2236,1.93415 5.5861,4.57565 7.1582,8.00195 l 0.5488,1.19336 1.004,-0.8457 c 4.7755,-4.02155 9.1105,-6.88832 12.9667,-8.61133 v -0.002 -0.002 c 3.8473,-1.75995 7.9497,-2.63867 12.3437,-2.63867 7.5836,0 12.94,2.2528 16.4121,6.72266 v 0.004 0.004 c 3.5423,4.46815 5.3711,10.80227 5.3711,19.11914 v 45.02149 h -9.9356 v -39.3711 c 0,-3.07727 -0.1495,-6.05152 -0.4492,-8.92187 -0.2621,-2.91599 -0.8462,-5.29904 -1.8223,-7.15821 v -0.004 -0.004 c -1.0621,-1.98565 -2.6247,-3.52654 -4.6152,-4.54492 -2.0463,-1.04697 -4.8079,-1.50586 -8.3262,-1.50586 -3.5086,0 -7.0129,0.89245 -10.4726,2.64258 -5e-4,2.4e-4 0,-2.5e-4 0,0 -3.4095,1.68332 -6.8067,3.83658 -10.1953,6.45312 l -0.4551,0.35157 0.074,0.56835 c 0.1232,0.94443 0.227,2.06764 0.3106,3.36329 v 0.002 c 0.083,1.24744 0.125,2.49488 0.125,3.74219 v 44.38672 h -9.9336 v -39.3711 c 0,-3.15756 -0.1499,-6.14895 -0.4492,-8.97656 -0.2616,-2.92091 -0.847,-5.30652 -1.8242,-7.16797 v -0.004 -0.002 c -1.0621,-1.98552 -2.629,-3.50827 -4.6231,-4.48437 -2.0456,-1.04462 -4.8038,-1.50391 -8.3183,-1.50391 -3.423,0 -6.8601,0.84886 -10.2774,2.51367 v 0 0.002 c -3.324,1.64043 -6.6375,3.72819 -9.9414,6.25977 l -0.3906,0.30078 v 52.4336 h -9.9336 v -68.9043 h 9.9336 v 9 l 1.6367,-1.35938 c 3.6701,-3.04453 7.3042,-5.40867 10.8965,-7.10156 3.5926,-1.67316 7.3934,-2.50586 11.4433,-2.50586 z m -1083.9257,0.25391 c 4.937,0 9.2036,0.4199 12.789,1.24414 h 0.01 l 0.01,0.002 c 3.6066,0.7787 6.6837,2.12002 9.2676,4.01758 v 0.002 c 2.5297,1.84709 4.4409,4.21483 5.7715,7.15821 1.3202,2.92052 2.0059,6.60966 2.0059,11.07812 v 47.11524 h -9.8692 v -8.44336 l -1.5625,1.0625 c -1.0712,0.72842 -2.514,1.74759 -4.3379,3.0625 -1.7313,1.23643 -3.4094,2.21549 -5.0312,2.94531 l -0.016,0.008 -0.014,0.006 c -1.9126,0.93596 -4.1302,1.71916 -6.6543,2.33984 l -0.01,0.002 -0.01,0.002 c -2.4751,0.64918 -5.4192,0.98242 -8.8243,0.98242 -6.1691,0 -11.2885,-2.00559 -15.5586,-6.07226 -4.2564,-4.05383 -6.3554,-9.1275 -6.3554,-15.46094 0,-5.23141 1.1084,-9.3497 3.248,-12.44141 v -0.002 c 2.2138,-3.17886 5.3496,-5.68271 9.4844,-7.52539 v -0.002 c 4.1981,-1.8518 9.2823,-3.12265 15.2559,-3.79102 6.0278,-0.67444 12.504,-1.18188 19.4257,-1.51953 l 0.9512,-0.0469 v -2.79296 c 0,-2.82211 -0.5048,-5.23255 -1.5762,-7.19532 -1.0157,-1.9374 -2.519,-3.48765 -4.4472,-4.58984 v 0 c -1.8238,-1.04837 -3.9802,-1.73714 -6.4492,-2.08984 -2.4201,-0.34574 -4.9433,-0.51758 -7.5683,-0.51758 -3.2189,0 -6.7754,0.43396 -10.6778,1.29101 0,2.5e-4 0,-2.5e-4 0,0 0,4.6e-4 0,0.001 -0.01,0.002 -3.6752,0.76789 -7.4659,1.90392 -11.3536,3.34961 V 243.7856 c 2.2501,-0.58407 5.2012,-1.21908 9.2618,-1.92188 4.3474,-0.75244 8.6271,-1.12695 12.8418,-1.12695 z m 78.0136,0 c 4.1485,0 8.341,0.51668 12.584,1.55664 l 0.01,0.002 0.01,0.002 c 4.0561,0.94511 7.3804,2.10722 10.0821,3.4336 v 10.70508 c -2.9605,-2.0344 -6.3835,-3.79249 -10.4063,-5.19922 -4.4547,-1.60022 -8.8462,-2.40821 -13.1601,-2.40821 -4.4882,1e-5 -8.3504,0.87377 -11.5352,2.66797 -3.2454,1.78627 -5.0156,4.69795 -5.0156,8.29883 0,3.12593 1.0288,5.68879 3.0957,7.37305 1.9801,1.64752 4.9809,2.871 9.0371,3.82031 v 0 0 c 2.2169,0.5116 4.6848,1.02135 7.4043,1.53125 v 0.002 0 c 2.7406,0.50596 5.0133,0.96874 6.8106,1.38672 v 0 0 c 5.4099,1.23891 9.4902,3.34381 12.3281,6.26172 2.8112,2.93277 4.2227,6.77827 4.2227,11.74414 0,6.19792 -2.4968,11.14726 -7.6719,15.14063 v 0 0.002 c -5.1103,3.97476 -12.1686,6.00977 -21.2871,6.00977 -5.165,0 -9.8924,-0.60324 -14.1914,-1.80079 -4.072,-1.18601 -7.4597,-2.46897 -10.2617,-3.82226 V 296.125 c 3.6046,2.58073 7.5326,4.7247 11.8594,6.3125 v 0.002 0 c 4.704,1.68307 9.2418,2.53516 13.6036,2.53516 5.3549,0 9.6293,-0.85297 12.8125,-2.67188 3.2302,-1.84587 4.9453,-4.9546 4.9453,-8.86523 0,-2.98489 -0.8965,-5.44055 -2.7442,-7.09375 -1.8714,-1.67449 -5.0723,-2.88028 -9.7148,-3.91211 v 0 c -1.7123,-0.38525 -3.9425,-0.8309 -6.6992,-1.33984 v 0 c -2.6868,-0.50382 -5.1377,-1.05 -7.3516,-1.63477 v 0 c -6.0997,-1.61857 -10.3196,-3.96628 -12.75,-6.90625 -2.428,-3.03035 -3.6425,-6.70529 -3.6425,-11.16992 0,-2.78251 0.5601,-5.37833 1.6836,-7.82813 8e-4,-0.002 10e-4,-0.004 0,-0.006 1.16,-2.43509 2.8966,-4.61871 5.25,-6.5664 v -0.002 -0.002 c 2.2489,-1.8875 5.1296,-3.39828 8.6699,-4.50976 v 0 -0.002 c 3.5678,-1.14827 7.567,-1.72851 12.0078,-1.72851 z m 309.9571,0 c 4.9369,0 9.2016,0.4199 12.7871,1.24414 h 0.01 l 0.01,0.002 c 3.6066,0.7787 6.6837,2.12002 9.2676,4.01758 v 0.002 c 2.5297,1.84709 4.4408,4.21482 5.7715,7.15821 1.3202,2.92052 2.0078,6.60966 2.0078,11.07812 v 47.11524 h -9.8711 v -8.44336 l -1.5625,1.0625 c -1.0712,0.72842 -2.514,1.74759 -4.3379,3.0625 -1.7314,1.23644 -3.4095,2.21549 -5.0313,2.94531 l -0.016,0.008 -0.014,0.006 c -1.9126,0.93596 -4.1301,1.71916 -6.6543,2.33984 l -0.01,0.002 -0.01,0.002 c -2.475,0.64918 -5.4173,0.98242 -8.8223,0.98242 -6.1692,0 -11.2905,-2.0056 -15.5605,-6.07226 -4.2566,-4.05383 -6.3555,-9.1275 -6.3555,-15.46094 0,-5.2314 1.1084,-9.3497 3.2481,-12.44141 v -0.002 c 2.2138,-3.17887 5.3497,-5.68271 9.4844,-7.52539 v -0.002 c 4.1981,-1.8518 9.2822,-3.12265 15.2558,-3.79102 6.0277,-0.67444 12.5039,-1.18188 19.4258,-1.51953 l 0.9512,-0.0469 v -2.79296 c 0,-2.82212 -0.5048,-5.23255 -1.5762,-7.19532 -1.0158,-1.9374 -2.519,-3.48765 -4.4473,-4.58984 v 0 c -1.8238,-1.04836 -3.9804,-1.73714 -6.4492,-2.08984 -2.4202,-0.34574 -4.9433,-0.51758 -7.5684,-0.51758 -3.2188,0 -6.7754,0.43396 -10.6777,1.29101 0,2.5e-4 0,-2.5e-4 0,0 0,4.6e-4 0,0.001 -0.01,0.002 -3.6757,0.76801 -7.4672,1.90359 -11.3555,3.34961 V 243.7856 c 2.2502,-0.58416 5.2022,-1.21894 9.2637,-1.92188 4.3474,-0.75244 8.629,-1.12695 12.8438,-1.12695 z m 607.2168,0 c 4.9369,0 9.2016,0.4199 12.7871,1.24414 h 0.01 l 0.01,0.002 c 3.6066,0.7787 6.6837,2.12002 9.2676,4.01758 v 0.002 c 2.5297,1.84709 4.4408,4.21482 5.7714,7.15821 1.3203,2.92052 2.0079,6.60966 2.0079,11.07812 v 47.11524 h -9.8711 v -8.44336 l -1.5625,1.0625 c -1.0712,0.72842 -2.514,1.74759 -4.3379,3.0625 -1.7314,1.23644 -3.4095,2.21549 -5.0313,2.94531 l -0.016,0.008 -0.014,0.006 c -1.9126,0.93596 -4.1301,1.71916 -6.6543,2.33984 l -0.01,0.002 -0.01,0.002 c -2.475,0.64918 -5.4173,0.98242 -8.8223,0.98242 -6.1692,0 -11.2905,-2.0056 -15.5605,-6.07226 -4.2566,-4.05383 -6.3555,-9.1275 -6.3555,-15.46094 0,-5.2314 1.1084,-9.3497 3.2481,-12.44141 v -0.002 c 2.2138,-3.17887 5.3497,-5.68271 9.4844,-7.52539 v -0.002 c 4.1981,-1.8518 9.2822,-3.12265 15.2558,-3.79102 6.0277,-0.67444 12.5039,-1.18188 19.4258,-1.51953 l 0.9512,-0.0469 v -2.79296 c 0,-2.82212 -0.5048,-5.23255 -1.5762,-7.19532 -1.0158,-1.9374 -2.519,-3.48765 -4.4473,-4.58984 v 0 c -1.8238,-1.04836 -3.9804,-1.73714 -6.4492,-2.08984 -2.4202,-0.34574 -4.9433,-0.51758 -7.5684,-0.51758 -3.2188,0 -6.7754,0.43396 -10.6777,1.29101 0,2.5e-4 0,-2.5e-4 0,0 0,4.6e-4 0,0.001 -0.01,0.002 -3.6757,0.76801 -7.4672,1.90359 -11.3555,3.34961 V 243.7856 c 2.2502,-0.58416 5.2022,-1.21894 9.2637,-1.92188 4.3474,-0.75244 8.629,-1.12695 12.8438,-1.12695 z m -552.3907,1.71289 h 9.9356 v 11.56055 l 1.625,-1.30665 c 4.6954,-3.77313 8.805,-6.41234 12.2773,-7.92382 v -0.002 0 c 3.5227,-1.55653 7.0811,-2.32812 10.7051,-2.32812 2.0531,0 3.5385,0.0681 4.371,0.18164 l 0.022,0.004 0.023,0.002 c 0.7047,0.0641 1.9596,0.24776 3.2793,0.44726 v 10.30469 c -1.5974,-0.35667 -3.1759,-0.6518 -4.7129,-0.80664 0,-2.1e-4 0,2.1e-4 -0.01,0 -1.707,-0.21856 -3.7116,-0.32617 -6.0254,-0.32617 -3.8276,0 -7.537,0.86231 -11.0879,2.57031 -8e-4,3.7e-4 0,0.002 0,0.002 0,0.001 -0.01,7.7e-4 -0.01,0.002 -3.5032,1.64447 -6.8708,3.78405 -10.0996,6.41015 l -0.3672,0.30079 v 49.8125 h -9.9356 z m 260.5723,0 h 9.9336 v 11.56055 l 1.6269,-1.30665 c 4.6955,-3.77313 8.8051,-6.41234 12.2774,-7.92382 v -0.002 0 c 3.5227,-1.55653 7.0811,-2.32812 10.7051,-2.32812 2.0531,0 3.5385,0.0681 4.3711,0.18164 l 0.023,0.004 0.022,0.002 c 0.7052,0.0641 1.9605,0.24756 3.2812,0.44726 v 10.30469 c -1.5973,-0.35675 -3.1758,-0.65172 -4.7129,-0.80664 0,-3.5e-4 -0.01,3.5e-4 -0.01,0 -1.7064,-0.21827 -3.7093,-0.32617 -6.0215,-0.32617 -3.8276,0 -7.537,0.86231 -11.0879,2.57031 -8e-4,3.7e-4 0,0.002 0,0.002 0,0.001 -0.01,7.7e-4 -0.01,0.002 -3.5032,1.64447 -6.8708,3.78405 -10.0996,6.41015 l -0.3691,0.30079 v 49.8125 h -9.9336 z m 215.3769,0 h 9.9336 v 11.56055 l 1.625,-1.30665 c 4.6954,-3.77313 8.8051,-6.41235 12.2774,-7.92382 v -0.002 0 c 3.5227,-1.55653 7.0792,-2.32812 10.7032,-2.32812 2.0532,0 3.5405,0.0681 4.373,0.18164 l 0.021,0.004 0.023,0.002 c 0.7048,0.0641 1.9597,0.24776 3.2793,0.44726 v 10.30469 c -1.5973,-0.35667 -3.1759,-0.6518 -4.7129,-0.80664 0,-2.1e-4 0,2.1e-4 -0.01,0 -1.7071,-0.21856 -3.7097,-0.32617 -6.0235,-0.32617 -3.8276,0 -7.5389,0.86231 -11.0898,2.57031 -8e-4,3.7e-4 0,0.002 0,0.002 0,0.001 -0.01,7.7e-4 -0.01,0.002 -3.5032,1.64447 -6.8708,3.78405 -10.0996,6.41015 l -0.3672,0.30079 v 49.8125 h -9.9336 z m -606.1875,6.3164 c -6.7055,0 -12.1065,2.38743 -15.8867,7.10157 v 0.002 c -3.7646,4.70577 -5.5508,11.75248 -5.5508,21.06445 0,9.02164 1.817,16.00508 5.6055,20.86328 v 0.002 0.002 c 3.7762,4.79796 9.159,7.23633 15.8281,7.23633 6.585,0 11.9261,-2.41639 15.7012,-7.16797 v -0.002 c 3.8373,-4.81971 5.6758,-11.82782 5.6758,-20.9336 0,-9.3135 -1.8102,-16.36315 -5.6191,-21.06836 -3.7777,-4.70894 -9.1354,-7.0996 -15.7579,-7.09961 z m 473.0293,0 c -6.7055,10e-6 -12.1084,2.38744 -15.8886,7.10157 v 0.002 c -3.7646,4.70577 -5.5528,11.75248 -5.5528,21.06445 0,9.02164 1.819,16.00508 5.6075,20.86328 v 0.002 0.002 c 3.7761,4.79796 9.1609,7.23633 15.83,7.23633 6.5849,0 11.924,-2.41639 15.6993,-7.16797 v -0.002 c 3.8372,-4.81971 5.6757,-11.82782 5.6757,-20.9336 0,-9.3135 -1.8101,-16.36315 -5.6191,-21.06836 -3.7777,-4.70894 -9.1335,-7.09961 -15.7559,-7.09961 z m 79.7247,0.44336 c -6.7829,0 -12.2953,2.33226 -16.2481,6.95118 -3.9701,4.63922 -5.8887,11.29157 -5.8887,19.82031 0,8.07275 1.4013,14.30105 4.3633,18.6543 2.9951,4.40195 8.0425,6.59375 14.7285,6.59375 3.596,0 7.1905,-0.68041 10.7637,-2.03125 v -0.002 -0.002 c 3.5985,-1.38737 6.9001,-3.23355 9.8964,-5.53516 l 0.3907,-0.29883 v -39.79492 l -0.586,-0.26758 c -3.2194,-1.45946 -6.2409,-2.49802 -9.0722,-3.10937 0,-4.5e-4 0,4.5e-4 -0.01,0 -2.7785,-0.65076 -5.5631,-0.97852 -8.3476,-0.97852 z m -339.4083,0.19141 c -6.9182,0 -12.4901,2.47451 -16.3964,7.35742 -3.9105,4.88811 -5.8047,11.7363 -5.8047,20.42969 0,8.53512 1.441,15.13374 4.4785,19.7793 v 0.002 0.002 c 3.0639,4.64087 8.0953,6.98828 14.6719,6.98828 3.5312,0 7.0977,-0.77552 10.6758,-2.30273 v -0.002 l 0.01,-0.002 c 3.5476,-1.55745 6.86,-3.54951 9.9297,-5.9707 l 0.3809,-0.30078 v -41.82031 l -0.5918,-0.26563 c -3.2623,-1.45946 -6.2001,-2.47704 -8.8301,-3.04687 -2.6189,-0.56742 -5.4617,-0.84766 -8.5274,-0.84766 z m -289.707,0.44336 c -3.6131,0 -7.2623,0.79627 -10.9219,2.36328 v 0.002 c 0,8.4e-4 0,10e-4 -0.01,0.002 -3.6321,1.51439 -7.008,3.4849 -10.1211,5.90625 l -0.3867,0.29883 v 41.76171 l 0.5898,0.26563 c 3.4222,1.54 6.3675,2.61846 8.8672,3.23242 v 0 0 c 2.5474,0.61491 5.3977,0.91797 8.5508,0.91797 6.8189,0 12.3293,-2.28531 16.2441,-6.82227 3.9955,-4.62402 5.8946,-11.68875 5.8946,-21.09179 0,-8.57136 -1.3957,-15.16341 -4.3457,-19.76953 v -0.004 c -2.9732,-4.68219 -7.9084,-7.0625 -14.3633,-7.0625 z m 76.3613,0.92187 c 6.156,0 10.785,2.09331 14.2012,6.35352 v 0.002 0.002 c 3.385,4.18151 5.1719,10.75817 5.1719,19.81054 0,8.83614 -1.8015,15.36858 -5.2422,19.68946 -3.4188,4.30366 -8.0249,6.41406 -14.1348,6.41406 -6.1954,0 -10.8399,-2.12999 -14.2578,-6.47266 v 0.002 c -3.4055,-4.36705 -5.1836,-10.88102 -5.1836,-19.63282 0,-9.0539 1.7666,-15.6335 5.1114,-19.81445 3.4138,-4.25723 8.0825,-6.35351 14.3261,-6.35352 z m 473.0293,0 c 6.156,10e-6 10.7831,2.09331 14.1993,6.35352 v 0.002 0.002 c 3.385,4.18151 5.1718,10.75817 5.1718,19.81054 0,8.83614 -1.8015,15.36858 -5.2421,19.68946 -3.4189,4.30367 -8.023,6.41406 -14.1329,6.41406 -6.1955,0 -10.8419,-2.12999 -14.2597,-6.47266 v 0.002 c -3.4055,-4.36705 -5.1856,-10.88102 -5.1856,-19.63282 0,-9.0539 1.7686,-15.6335 5.1133,-19.81445 3.4139,-4.25723 8.0845,-6.35351 14.3281,-6.35352 z m 79.7247,0.44336 c 2.6302,0 5.2622,0.30792 7.8984,0.92579 l 0.01,0.002 0.01,0.002 c 2.4848,0.53519 5.2135,1.51336 8.0957,2.7793 v 37.41211 c -2.7429,2.05221 -5.7315,3.73488 -9.0078,4.99804 -3.365,1.27136 -6.7069,1.9004 -10.0489,1.9004 -6.2633,0 -10.4854,-1.91107 -13.0761,-5.71875 -2.624,-3.8564 -4.0157,-9.6906 -4.0157,-17.5293 0,-8.22908 1.8458,-14.35668 5.4082,-18.51953 3.5799,-4.18316 8.393,-6.25196 14.7286,-6.25196 z m -339.4083,0.19141 c 2.9436,0 5.6443,0.26989 8.1036,0.80273 2.277,0.49336 4.9431,1.45401 7.8457,2.71485 v 39.45508 c -2.8355,2.18939 -5.8631,4.01947 -9.1153,5.44726 -3.3585,1.43214 -6.6445,2.13867 -9.8808,2.13867 -6.1164,0 -10.3086,-2.01255 -13,-6.08593 -2.7178,-4.15653 -4.1543,-10.37823 -4.1543,-18.68555 0,-8.40297 1.8298,-14.75791 5.3672,-19.17969 3.5416,-4.42698 8.3799,-6.60742 14.8339,-6.60742 z m -289.707,0.44336 c 5.9849,0 10.0628,2.02123 12.6758,6.13867 v 0 0.002 c 2.6343,4.11117 4.0332,10.34178 4.0332,18.69532 0,9.13211 -1.8693,15.69173 -5.4063,19.78515 v 0 c -3.5331,4.09513 -8.3469,6.12891 -14.7305,6.12891 -3.0238,0 -5.7156,-0.29187 -8.0762,-0.86133 -2.1638,-0.53145 -4.8827,-1.5563 -7.9355,-2.89844 v -39.40039 c 2.8734,-2.18495 5.958,-3.99373 9.2871,-5.38086 v -0.002 l 0.01,-0.002 c 3.4464,-1.47703 6.8189,-2.20508 10.1426,-2.20508 z m -216.2168,22.25195 -1.0586,0.0625 c -3.6516,0.21231 -7.9543,0.52939 -12.9121,0.95313 -4.9462,0.4264 -8.8875,1.04354 -11.8633,1.875 v 0 0 c -3.5552,1.00951 -6.4894,2.61059 -8.7422,4.81836 -2.3239,2.23502 -3.4746,5.36703 -3.4746,9.15625 0,4.26389 1.3367,7.68742 4.0371,9.96875 v 0.002 0.004 c 2.7131,2.24543 6.7008,3.27734 11.871,3.27734 4.3175,0 8.3008,-0.83323 11.9102,-2.50586 l 0.01,-0.002 v -0.002 c 3.532,-1.67987 6.8105,-3.68428 9.83,-6.01367 l 0.3887,-0.30078 z m 387.9688,0 -1.0586,0.0625 c -3.6517,0.21231 -7.9543,0.52939 -12.9121,0.95313 -4.9462,0.4264 -8.8876,1.04354 -11.8633,1.875 v 0 0 c -3.5552,1.00951 -6.4894,2.61059 -8.7422,4.81836 -2.3238,2.23502 -3.4746,5.36703 -3.4746,9.15625 0,4.26388 1.3368,7.68741 4.0371,9.96875 v 0.002 0.004 c 2.7133,2.24542 6.7028,3.27734 11.8731,3.27734 4.3174,0 8.2989,-0.83323 11.9082,-2.50586 l 0.01,-0.002 v -0.002 c 3.5321,-1.67987 6.8105,-3.68428 9.8301,-6.01367 l 0.3887,-0.30078 z m 607.2168,0 -1.0586,0.0625 c -3.6517,0.21231 -7.9543,0.52939 -12.9121,0.95313 -4.9462,0.4264 -8.8876,1.04354 -11.8633,1.875 v 0 0 c -3.5553,1.00951 -6.4894,2.61059 -8.7422,4.81836 -2.3238,2.23502 -3.4746,5.36703 -3.4746,9.15625 0,4.26388 1.3368,7.68741 4.0371,9.96875 v 0.002 0.004 c 2.7133,2.24542 6.7028,3.27734 11.873,3.27734 4.3175,0 8.299,-0.83323 11.9083,-2.50586 l 0.01,-0.002 v -0.002 c 3.5321,-1.67987 6.8105,-3.68428 9.8301,-6.01367 l 0.3887,-0.30078 z m -997.1856,2.13672 v 18.14063 c -2.801,2.11966 -5.8158,3.97183 -9.0781,5.52343 -3.3283,1.54061 -7.0029,2.31641 -11.0606,2.31641 -4.9004,0 -8.4,-1.00191 -10.5957,-2.81836 v 0 c -2.2029,-1.86558 -3.3184,-4.57748 -3.3184,-8.43359 0,-3.40093 0.964,-5.89368 2.8672,-7.72071 v -0.004 -0.004 c 1.978,-1.93848 4.5866,-3.38316 7.8847,-4.32031 v -0.002 c 2.7791,-0.77615 6.6226,-1.38686 11.4921,-1.80664 4.5375,-0.38782 8.3727,-0.66159 11.8008,-0.8711 z m 387.9688,0 v 18.14063 c -2.8012,2.11967 -5.8158,3.97183 -9.0782,5.52343 -3.3282,1.54061 -7.0009,2.31641 -11.0585,2.31641 -4.9005,0 -8.402,-1.0019 -10.5977,-2.81836 v 0 c -2.2028,-1.86557 -3.3183,-4.57747 -3.3183,-8.43359 0,-3.40093 0.964,-5.89368 2.8672,-7.72071 v -0.004 -0.004 c 1.9781,-1.93848 4.5867,-3.38316 7.8848,-4.32031 v -0.002 c 2.7792,-0.77615 6.6227,-1.38686 11.4922,-1.80664 4.5375,-0.38782 8.3726,-0.66159 11.8008,-0.8711 z m 607.2168,0 v 18.14063 c -2.8012,2.11967 -5.8158,3.97183 -9.0782,5.52343 -3.3282,1.54061 -7.0009,2.31641 -11.0586,2.31641 -4.9004,0 -8.4019,-1.0019 -10.5976,-2.81836 v 0 c -2.2028,-1.86557 -3.3183,-4.57747 -3.3183,-8.43359 0,-3.40093 0.964,-5.89368 2.8672,-7.72071 v -0.004 -0.004 c 1.9781,-1.93848 4.5867,-3.38316 7.8848,-4.32031 v -0.002 c 2.7792,-0.77615 6.6227,-1.38686 11.4922,-1.80664 4.5375,-0.38782 8.3726,-0.66159 11.8008,-0.8711 z"
         id="path12"
         sodipodi:nodetypes="ccccssccscccccsccsssscccccccscsccccccccsccscsccccccccssccccccccscccssccccccccsssssccsccccssscccccccccccscccscccscscscccccccccccccsssccscccsccccccccscccccssccscscccccscccsccsccssccccsscccssccccccscccssccccccscccscsccccccsccccccsssscscccscccccccssccccsccsccccsscccssccscccsscscssccccscsccscscccsssccssscscccsssccssccccccscccsscccsscccsscccssscccssccsccscccccccscccsccccsccsssccccssccccsccsccscccsscscccccscsssscccccscsccsccsssccccccccssccscccccccccscccssccssccsssscscccccccsccscccccsscccccscccssccccccsccccssccccscsssscccccscssccsccsssccccccccssccscccsssccccscsssscccccscssccsccsssccccccccssccscsscccccccscccscccccscccccccccccscccscccccscccccccccccscccscccccsccccsccssscscsssccssscscssscccscccsssccsscsscccscsccccccccssscccccscccscccsccsccccssscscssssccscccccsscccccccccccsscccsccsscccscccccccsssccccsccscsssscscccsccsccccccscscscsccsscscssccscccccssssssssssscssccccsccsscccsccsscccscccccccsssccccsccscsssssscccscccccsccsscccscccccccsssccccsccscsssssscccsccccccccssccsccscsscccccccccccccssccsccccsscccccccccccccssccsccscssccccccccccscccsccsccccccscccsccsccccssssccccccccccccsscccscccscccsccccsccccsscsscsccccscccscsccscssscccscsccscsscscscccssssccsscccscssscsccsssscccccccccccscscscccscccccccccscscscccscccccccccscscscccscccccccccsssscccccccccccsssscccccccccccsssscccccccc" />
    </g>
    <path
       style="fill:#ffffff;stroke:#000000;stroke-width:0.529;stroke-dasharray:none;stroke-opacity:1"
       d="m 116.01514,67.365738 v 19.331119 c -2.28003,-1.407301 -4.83695,-2.213625 -4.8199,-8.606719 l -6.29238,0.315767 c 3.67068,-3.383882 7.07855,-4.438309 11.11228,-11.040167 z"
       id="path4"
       sodipodi:nodetypes="ccccc" />
    <use
       x="0"
       y="0"
       xlink:href="#path4"
       id="use4"
       transform="matrix(-1,0,0,1,232.55928,-3.4717289e-8)" />
    <path
       style="fill:#ffffff;stroke:none;stroke-width:0.529;stroke-dasharray:none;stroke-opacity:1"
       d="m 115.43271,68.833466 0.84693,-1.477947 0.87286,1.53169 v 17.136554 l -0.87286,0.527027 -0.71791,-0.433477 z"
       id="path5"
       sodipodi:nodetypes="ccccccc" />
    <path
       style="fill:#ffffff;stroke:#000000;stroke-width:0.529;stroke-dasharray:none;stroke-opacity:1"
       d="m 26.001907,41.538697 47.551747,9.780028 z"
       id="path6"
       sodipodi:nodetypes="ccc" />
    <path
       style="fill:#ffffff;stroke:#000000;stroke-width:0.529;stroke-dasharray:none;stroke-opacity:1"
       d="M 206.83292,41.537745 157.70829,51.930243 Z"
       id="path7"
       sodipodi:nodetypes="ccc" />
    <g
       id="path13"
       style="opacity:1">
      <g
         id="path16"
         style="opacity:1"
         transform="translate(-5.2916669,-18.06975)">
        <path
           style="baseline-shift:baseline;display:inline;overflow:visible;vector-effect:none;fill:#ffffff;enable-background:accumulate;stop-color:#000000;stop-opacity:1"
           d="M 494.99998,96.049951 C 410.35671,103.35714 336.39123,118.39973 265,100 c 68.09073,11.41603 145.65729,0.8315 229.99998,-7.168941 z"
           id="path17" />
        <path
           style="baseline-shift:baseline;display:inline;overflow:visible;vector-effect:none;enable-background:accumulate;stop-color:#000000;stop-opacity:1"
           d="m 495,92.650805 -2e-5,3e-6 c -84.34773,8.000922 -161.92038,18.560532 -229.9668,7.151929 l -0.084,0.390623 c 0.006,0.002 0.0117,0.002 0.0176,0.004 71.44364,18.40766 145.42791,3.35816 230.05078,-3.947267 L 495,96.225003 Z M 494.99999,93 v 2.811217 C 412.36425,102.95752 339.73916,117.40429 269.97461,100.93164 336.84015,111.03912 412.79707,100.80306 494.99999,93 Z"
           id="path18"
           sodipodi:nodetypes="cccccscccccc" />
      </g>
      <path
         style="fill:#000000;stroke:none;stroke-width:0.4;stroke-dasharray:none;stroke-opacity:1"
         d="m 487.48938,75.141591 c 1.80229,-0.240485 3.50308,-0.089 5.21891,0.0047 l -3.00001,-0.384956 z"
         id="path19"
         sodipodi:nodetypes="cccc" />
    </g>
  </g>
</svg>
